<?xml version="1.0" standalone="no"?>
<!DOCTYPE svg PUBLIC "-//W3C//DTD SVG 20010904//EN"
 "http://www.w3.org/TR/2001/REC-SVG-20010904/DTD/svg10.dtd">
<svg version="1.0" xmlns="http://www.w3.org/2000/svg"
 width="512.000000pt" height="512.000000pt" viewBox="0 0 512.000000 512.000000"
 preserveAspectRatio="xMidYMid meet">
<metadata>
Created by potrace 1.15, written by Peter Selinger 2001-2017
</metadata>
<g class="bucket-svg" transform="translate(0.000000,512.000000) scale(0.100000,-0.100000)"
fill="#282C31" stroke="none">
<path d="M2290 4940 c-863 -50 -1595 -288 -1945 -634 -71 -70 -149 -178 -177
-246 -8 -19 -22 -41 -31 -49 -20 -16 -22 -81 -8 -207 10 -86 40 -165 89 -237
25 -35 105 -304 446 -1490 459 -1600 424 -1497 548 -1618 203 -197 555 -341
993 -406 169 -25 591 -25 760 0 246 37 477 102 659 186 185 86 371 235 439
352 19 31 159 506 437 1475 378 1318 413 1436 459 1524 28 53 57 123 66 155
20 78 21 248 1 264 -8 7 -17 25 -21 40 -12 56 -97 183 -173 259 -278 277 -820
491 -1487 586 -301 43 -759 63 -1055 46z m960 -644 c654 -67 1064 -197 1150
-367 34 -65 23 -104 -47 -171 -161 -154 -663 -281 -1298 -329 -204 -15 -734
-16 -935 0 -654 49 -1150 177 -1315 336 -77 75 -72 140 18 221 169 151 671
276 1302 323 189 15 942 6 1125 -13z"/>
</g>
</svg>
